HIERARCHY
ROOT newVegas:Hips
{
	OFFSET 0.000000 96.479958 0.000000
	CHANNELS 6 Xposition Yposition Zposition Xrotation Yrotation Zrotation
	JOINT newVegas:Pelvis
	{
		OFFSET 0.000000 0.000000 0.000000
		CHANNELS 3 Xrotation Yrotation Zrotation
		JOINT newVegas:LeftUpLeg
		{
			OFFSET 18.735201 -5.666702 -4.541200
			CHANNELS 3 Xrotation Yrotation Zrotation
			JOINT newVegas:LeftLeg
			{
				OFFSET -0.021200 -31.938179 0.493100
				CHANNELS 3 Xrotation Yrotation Zrotation
				JOINT newVegas:LeftFoot
				{
					OFFSET 0.021200 -31.938179 -4.336299
					CHANNELS 3 Xrotation Yrotation Zrotation
					JOINT newVegas:LeftToeBase
					{
						OFFSET 0.943001 -26.722000 15.023500
						CHANNELS 3 Xrotation Yrotation Zrotation
						End Site
						{
							OFFSET 0.000000 30.670183 0.000000
						}
					}
				}
				JOINT newVegas:Left_PantLeg
				{
					OFFSET 0.663870 -9.044666 -1.108900
					CHANNELS 3 Xrotation Yrotation Zrotation
					End Site
					{
						OFFSET 1.415995 20.635357 0.000000
					}
				}
			}
		}
		JOINT newVegas:RightUpLeg
		{
			OFFSET -18.735201 -5.666702 -4.541200
			CHANNELS 3 Xrotation Yrotation Zrotation
			JOINT newVegas:RightLeg
			{
				OFFSET 0.018946 -31.938133 0.493100
				CHANNELS 3 Xrotation Yrotation Zrotation
				JOINT newVegas:RightFoot
				{
					OFFSET -0.018946 -31.938126 -4.336299
					CHANNELS 3 Xrotation Yrotation Zrotation
					JOINT newVegas:RightToeBase
					{
						OFFSET -0.943001 -26.722004 15.023500
						CHANNELS 3 Xrotation Yrotation Zrotation
						End Site
						{
							OFFSET 0.000000 30.670187 0.000000
						}
					}
				}
				JOINT newVegas:Right_PantLeg
				{
					OFFSET -0.661674 -9.044716 -1.108900
					CHANNELS 3 Xrotation Yrotation Zrotation
					End Site
					{
						OFFSET -1.415958 20.635269 0.000000
					}
				}
			}
		}
	}
	JOINT newVegas:Spine
	{
		OFFSET 0.000000 10.199997 -0.299500
		CHANNELS 3 Xrotation Yrotation Zrotation
		JOINT newVegas:Spine1
		{
			OFFSET 0.000000 11.900002 -1.516600
			CHANNELS 3 Xrotation Yrotation Zrotation
			JOINT newVegas:Spine2
			{
				OFFSET 0.000000 13.600006 -2.842500
				CHANNELS 3 Xrotation Yrotation Zrotation
				JOINT newVegas:Neck
				{
					OFFSET 0.000000 9.624100 -2.890100
					CHANNELS 3 Xrotation Yrotation Zrotation
					JOINT newVegas:Head
					{
						OFFSET 0.000000 14.068802 -1.351900
						CHANNELS 3 Xrotation Yrotation Zrotation
						JOINT newVegas:Hair_Back
						{
							OFFSET 0.000000 3.231903 -17.524799
							CHANNELS 3 Xrotation Yrotation Zrotation
							End Site
							{
								OFFSET 0.000000 19.849884 0.000000
							}
						}
						JOINT newVegas:Hair_Front
						{
							OFFSET 0.000000 31.260406 4.573800
							CHANNELS 3 Xrotation Yrotation Zrotation
							JOINT newVegas:Hair_Front1
							{
								OFFSET 0.000000 2.284103 11.993300
								CHANNELS 3 Xrotation Yrotation Zrotation
								JOINT newVegas:Hair_Front2
								{
									OFFSET 0.000000 2.284103 11.993300
									CHANNELS 3 Xrotation Yrotation Zrotation
									End Site
									{
										OFFSET 0.000000 12.208862 0.000000
									}
								}
							}
						}
						JOINT newVegas:Jowel
						{
							OFFSET 0.000000 -7.458206 6.864100
							CHANNELS 3 Xrotation Yrotation Zrotation
							End Site
							{
								OFFSET 0.000000 19.849884 0.000000
							}
						}
					}
				}
				JOINT newVegas:LeftShoulder
				{
					OFFSET 15.263000 10.923401 -0.547700
					CHANNELS 3 Xrotation Yrotation Zrotation
					JOINT newVegas:LeftArm
					{
						OFFSET 25.438599 -2.830597 -13.032500
						CHANNELS 3 Xrotation Yrotation Zrotation
						JOINT newVegas:LeftForeArm
						{
							OFFSET 29.960503 0.000000 0.000000
							CHANNELS 3 Xrotation Yrotation Zrotation
							JOINT newVegas:LeftHand
							{
								OFFSET 27.849251 0.000000 0.000000
								CHANNELS 3 Xrotation Yrotation Zrotation
								JOINT newVegas:LeftHandThumb1
								{
									OFFSET 4.487587 -3.305161 6.305391
									CHANNELS 3 Xrotation Yrotation Zrotation
									JOINT newVegas:LeftHandThumb2
									{
										OFFSET 5.480453 -3.164139 3.164143
										CHANNELS 3 Xrotation Yrotation Zrotation
										JOINT newVegas:LeftHandThumb3
										{
											OFFSET 5.159721 -2.978973 2.978967
											CHANNELS 3 Xrotation Yrotation Zrotation
											End Site
											{
												OFFSET 2.494507 5.926697 1.738678
											}
										}
									}
								}
								JOINT newVegas:LeftHandIndex1
								{
									OFFSET 18.578728 -0.527832 5.208049
									CHANNELS 3 Xrotation Yrotation Zrotation
									JOINT newVegas:LeftHandIndex2
									{
										OFFSET 3.192009 0.000000 0.000000
										CHANNELS 3 Xrotation Yrotation Zrotation
										JOINT newVegas:LeftHandIndex3
										{
											OFFSET 3.835129 0.000000 0.000000
											CHANNELS 3 Xrotation Yrotation Zrotation
											End Site
											{
												OFFSET -0.034599 3.816971 0.371180
											}
										}
									}
								}
								JOINT newVegas:LeftHandMiddle1
								{
									OFFSET 18.476105 0.000000 0.000000
									CHANNELS 3 Xrotation Yrotation Zrotation
									JOINT newVegas:LeftHandMiddle2
									{
										OFFSET 3.324875 0.000000 0.000000
										CHANNELS 3 Xrotation Yrotation Zrotation
										JOINT newVegas:LeftHandMiddle3
										{
											OFFSET 4.596550 0.000000 0.000000
											CHANNELS 3 Xrotation Yrotation Zrotation
											End Site
											{
												OFFSET 0.057701 4.578827 0.399218
											}
										}
									}
								}
								JOINT newVegas:LeftHandRing1
								{
									OFFSET 17.732719 0.121887 -4.201567
									CHANNELS 3 Xrotation Yrotation Zrotation
									JOINT newVegas:LeftHandRing2
									{
										OFFSET 2.733170 0.000000 0.000000
										CHANNELS 3 Xrotation Yrotation Zrotation
										JOINT newVegas:LeftHandRing3
										{
											OFFSET 3.178268 0.000000 0.000000
											CHANNELS 3 Xrotation Yrotation Zrotation
											End Site
											{
												OFFSET 0.119102 3.170624 0.185394
											}
										}
									}
								}
								JOINT newVegas:LeftHandPinky1
								{
									OFFSET 15.989624 -0.606689 -7.535461
									CHANNELS 3 Xrotation Yrotation Zrotation
									JOINT newVegas:LeftHandPinky2
									{
										OFFSET 2.538986 0.000000 0.000000
										CHANNELS 3 Xrotation Yrotation Zrotation
										JOINT newVegas:LeftHandPinky3
										{
											OFFSET 2.593102 0.000000 0.000000
											CHANNELS 3 Xrotation Yrotation Zrotation
											End Site
											{
												OFFSET -0.150902 2.584198 0.152708
											}
										}
									}
								}
							}
							JOINT newVegas:Left_Sleeve
							{
								OFFSET 0.267448 -0.649796 0.577675
								CHANNELS 3 Xrotation Yrotation Zrotation
								End Site
								{
									OFFSET 0.000000 15.991241 0.000000
								}
							}
							JOINT newVegas:Left_CapeC
							{
								OFFSET 15.715958 -8.608795 -6.935905
								CHANNELS 3 Xrotation Yrotation Zrotation
								JOINT newVegas:Left_CapeC1
								{
									OFFSET 0.000000 -8.688499 0.000000
									CHANNELS 3 Xrotation Yrotation Zrotation
									End Site
									{
										OFFSET 0.000000 8.688499 0.000000
									}
								}
							}
						}
						JOINT newVegas:Left_CapeB
						{
							OFFSET 26.118385 -8.608795 -7.079235
							CHANNELS 3 Xrotation Yrotation Zrotation
							JOINT newVegas:Left_CapeB1
							{
								OFFSET 0.000000 -8.688499 0.000000
								CHANNELS 3 Xrotation Yrotation Zrotation
								End Site
								{
									OFFSET 0.000000 8.688499 0.000000
								}
							}
						}
						JOINT newVegas:Left_CapeA
						{
							OFFSET 5.115639 -8.608795 -10.395809
							CHANNELS 3 Xrotation Yrotation Zrotation
							JOINT newVegas:Left_CapeA1
							{
								OFFSET 0.000000 -8.688499 0.000000
								CHANNELS 3 Xrotation Yrotation Zrotation
								End Site
								{
									OFFSET 0.000000 8.688499 0.000000
								}
							}
						}
					}
				}
				JOINT newVegas:RightShoulder
				{
					OFFSET -15.263000 10.923401 -0.547700
					CHANNELS 3 Xrotation Yrotation Zrotation
					JOINT newVegas:RightArm
					{
						OFFSET -25.438599 -2.830597 -13.032500
						CHANNELS 3 Xrotation Yrotation Zrotation
						JOINT newVegas:RightForeArm
						{
							OFFSET -29.960503 0.000000 0.000000
							CHANNELS 3 Xrotation Yrotation Zrotation
							JOINT newVegas:RightHand
							{
								OFFSET -27.849251 0.000000 0.000000
								CHANNELS 3 Xrotation Yrotation Zrotation
								JOINT newVegas:RightHandThumb1
								{
									OFFSET -4.487587 -3.305161 6.305391
									CHANNELS 3 Xrotation Yrotation Zrotation
									JOINT newVegas:RightHandThumb2
									{
										OFFSET -5.480453 -3.164139 3.164143
										CHANNELS 3 Xrotation Yrotation Zrotation
										JOINT newVegas:RightHandThumb3
										{
											OFFSET -5.159721 -2.978973 2.978967
											CHANNELS 3 Xrotation Yrotation Zrotation
											End Site
											{
												OFFSET -2.494507 5.926697 1.738678
											}
										}
									}
								}
								JOINT newVegas:RightHandIndex1
								{
									OFFSET -18.578728 -0.527832 5.208049
									CHANNELS 3 Xrotation Yrotation Zrotation
									JOINT newVegas:RightHandIndex2
									{
										OFFSET -3.192009 0.000000 0.000000
										CHANNELS 3 Xrotation Yrotation Zrotation
										JOINT newVegas:RightHandIndex3
										{
											OFFSET -3.835129 0.000000 0.000000
											CHANNELS 3 Xrotation Yrotation Zrotation
											End Site
											{
												OFFSET 0.034599 3.816971 0.371180
											}
										}
									}
								}
								JOINT newVegas:RightHandMiddle1
								{
									OFFSET -18.476105 0.000000 0.000000
									CHANNELS 3 Xrotation Yrotation Zrotation
									JOINT newVegas:RightHandMiddle2
									{
										OFFSET -3.324875 0.000000 0.000000
										CHANNELS 3 Xrotation Yrotation Zrotation
										JOINT newVegas:RightHandMiddle3
										{
											OFFSET -4.596550 0.000000 0.000000
											CHANNELS 3 Xrotation Yrotation Zrotation
											End Site
											{
												OFFSET -0.057701 4.578827 0.399218
											}
										}
									}
								}
								JOINT newVegas:RightHandRing1
								{
									OFFSET -17.732719 0.121887 -4.201567
									CHANNELS 3 Xrotation Yrotation Zrotation
									JOINT newVegas:RightHandRing2
									{
										OFFSET -2.733170 0.000000 0.000000
										CHANNELS 3 Xrotation Yrotation Zrotation
										JOINT newVegas:RightHandRing3
										{
											OFFSET -3.178268 0.000000 0.000000
											CHANNELS 3 Xrotation Yrotation Zrotation
											End Site
											{
												OFFSET -0.119102 3.170624 0.185394
											}
										}
									}
								}
								JOINT newVegas:RightHandPinky1
								{
									OFFSET -15.989624 -0.606689 -7.535461
									CHANNELS 3 Xrotation Yrotation Zrotation
									JOINT newVegas:RightHandPinky2
									{
										OFFSET -2.538986 0.000000 0.000000
										CHANNELS 3 Xrotation Yrotation Zrotation
										JOINT newVegas:RightHandPinky3
										{
											OFFSET -2.593102 0.000000 0.000000
											CHANNELS 3 Xrotation Yrotation Zrotation
											End Site
											{
												OFFSET 0.150902 2.584198 0.152708
											}
										}
									}
								}
							}
							JOINT newVegas:Right_CapeC
							{
								OFFSET -15.715958 -8.608795 -6.935905
								CHANNELS 3 Xrotation Yrotation Zrotation
								JOINT newVegas:Right_CapeC1
								{
									OFFSET 0.000000 -8.688499 0.000000
									CHANNELS 3 Xrotation Yrotation Zrotation
									End Site
									{
										OFFSET 0.000000 8.688499 0.000000
									}
								}
							}
							JOINT newVegas:Right_Sleeve
							{
								OFFSET -0.267448 -0.649994 0.577675
								CHANNELS 3 Xrotation Yrotation Zrotation
								End Site
								{
									OFFSET 0.000000 15.991302 0.000000
								}
							}
						}
						JOINT newVegas:Right_CapeA
						{
							OFFSET -5.115540 -8.608795 -10.395824
							CHANNELS 3 Xrotation Yrotation Zrotation
							JOINT newVegas:Right_CapeA1
							{
								OFFSET 0.000000 -8.688499 0.000000
								CHANNELS 3 Xrotation Yrotation Zrotation
								End Site
								{
									OFFSET 0.000000 8.688499 0.000000
								}
							}
						}
						JOINT newVegas:Right_CapeB
						{
							OFFSET -26.118187 -8.608795 -7.079266
							CHANNELS 3 Xrotation Yrotation Zrotation
							JOINT newVegas:Right_CapeB1
							{
								OFFSET 0.000000 -8.688499 0.000000
								CHANNELS 3 Xrotation Yrotation Zrotation
								End Site
								{
									OFFSET 0.000000 8.688499 0.000000
								}
							}
						}
					}
				}
				JOINT newVegas:Left_Collar
				{
					OFFSET 18.625099 8.655502 8.828100
					CHANNELS 3 Xrotation Yrotation Zrotation
					JOINT newVegas:Left_Collar1
					{
						OFFSET 14.783401 10.540405 -1.259500
						CHANNELS 3 Xrotation Yrotation Zrotation
						End Site
						{
							OFFSET 0.000000 18.199875 0.000000
						}
					}
				}
				JOINT newVegas:Collar_Back
				{
					OFFSET 0.000000 15.630707 -20.132601
					CHANNELS 3 Xrotation Yrotation Zrotation
					End Site
					{
						OFFSET 0.000000 22.523010 0.000000
					}
				}
				JOINT newVegas:Left_Peck
				{
					OFFSET 17.239599 -5.132599 25.482599
					CHANNELS 3 Xrotation Yrotation Zrotation
					End Site
					{
						OFFSET 0.000000 22.523010 0.000000
					}
				}
				JOINT newVegas:Right_Peck
				{
					OFFSET -17.239599 -5.132202 25.482599
					CHANNELS 3 Xrotation Yrotation Zrotation
					End Site
					{
						OFFSET 0.000000 22.523010 0.000000
					}
				}
				JOINT newVegas:Right_Collar
				{
					OFFSET -18.625099 8.655792 8.828100
					CHANNELS 3 Xrotation Yrotation Zrotation
					JOINT newVegas:Right_Collar1
					{
						OFFSET -14.783401 10.539993 -1.259500
						CHANNELS 3 Xrotation Yrotation Zrotation
						End Site
						{
							OFFSET 0.000000 18.199631 0.000000
						}
					}
				}
			}
		}
		JOINT newVegas:Belly
		{
			OFFSET 0.000000 -6.540398 9.014299
			CHANNELS 3 Xrotation Yrotation Zrotation
			End Site
			{
				OFFSET 0.000000 11.566666 0.000000
			}
		}
	}
	JOINT newVegas:ElvisFacialAnim_Joint
	{
		OFFSET 1.000000 -95.330101 -8.825800
		CHANNELS 3 Xrotation Yrotation Zrotation
		End Site
		{
			OFFSET 0.000000 35.315800 0.000000
		}
	}
}
MOTION
Frames: 4
Frame Time: 0.033333
1.798450 87.044266 -108.793633 -5.269367 -8.256678 -9.025018 -0.000000 -0.000000 0.000001 -46.520220 -10.397404 10.288978 42.829039 8.975864 3.816560 -13.009858 4.611505 -7.345734 -0.000002 0.000000 -0.000000 -0.000002 -0.000000 0.000000 3.729860 -3.573902 3.551204 32.547672 3.419298 -5.099156 -31.048377 0.507453 7.351103 -0.000000 -0.000000 -0.000000 0.000002 -0.000000 0.000000 13.041387 18.583855 6.616464 7.702328 3.811701 -0.923532 7.535415 4.061900 -0.860900 -0.518734 -0.824894 0.166696 -0.518744 -0.824893 0.166692 0.000000 -0.000001 0.000000 -0.518798 -0.824894 0.166694 -0.518658 -0.824916 0.166701 -0.000001 -0.000000 -0.000000 0.000000 -0.000001 0.000000 0.641001 -1.040103 -9.773770 31.895484 -19.670175 -68.528579 -0.000010 -44.518651 -0.000002 1.365658 -1.682925 16.268197 6.375637 -1.316049 -0.941160 12.002586 4.582732 14.030577 0.000001 0.000002 -0.000001 -2.676179 -2.846172 -24.325903 0.578424 2.540166 -25.652435 0.000000 -0.000003 0.000006 -0.839915 2.126536 -28.139065 1.332993 3.721654 -39.401128 0.000001 -0.000002 -0.000002 0.181229 4.151993 -30.412613 1.782245 4.208248 -45.891153 -0.000000 -0.000001 0.000002 -1.289535 6.527218 -29.378454 1.132278 3.463394 -36.198684 0.000001 -0.000002 -0.000002 0.000001 0.000000 0.000001 0.000001 0.000000 0.000001 0.000001 -0.000000 0.000002 -0.000000 -0.000003 0.000001 -0.000000 -0.000003 0.000001 -0.000000 -0.000003 0.000001 -0.000000 -0.000003 0.000001 -0.784495 11.285209 17.993274 -16.253839 19.050156 39.732713 0.000020 55.156404 -0.000025 16.830329 -4.891765 12.175861 18.520917 -7.190331 -1.277230 2.527968 -5.908625 -9.125969 -0.000000 -0.000003 0.000003 -0.115029 -1.205790 52.792267 1.576871 -3.494673 48.561214 0.000000 -0.000002 0.000002 0.356736 -4.781421 51.669947 2.532102 -4.145001 62.825842 -0.000002 -0.000000 0.000001 0.867524 -5.238163 53.608242 2.833100 -4.285795 66.918785 0.000000 0.000001 0.000001 0.972409 -5.941719 58.426094 0.997966 -2.882843 38.182615 -0.000001 0.000003 -0.000000 -0.000003 0.000000 0.000003 -0.000001 0.000003 -0.000003 -0.000003 0.000001 0.000001 0.000003 0.000001 -0.000002 0.000003 0.000001 -0.000003 0.000003 0.000001 -0.000002 0.000003 0.000001 -0.000003 0.000001 -0.000001 0.000000 0.000001 -0.000001 0.000000 0.000001 -0.000001 0.000000 0.000001 -0.000001 0.000000 0.000001 -0.000001 0.000000 0.000001 -0.000001 0.000000 0.000001 -0.000001 0.000000 -0.000001 0.000000 -0.000000 -0.000000 -0.000000 0.000001 
1.544803 88.008118 -112.899803 -4.846154 -7.238504 -8.503732 0.000000 -0.000000 0.000001 -44.739078 -9.139538 9.791581 41.215335 7.764291 3.067281 -15.104019 8.450138 -4.417474 0.000001 -0.000001 -0.000000 0.000000 0.000000 -0.000000 -0.844658 -3.876625 4.148145 34.050996 3.959395 -4.586289 -28.037667 -0.854319 5.642022 -0.000000 0.000001 -0.000000 -0.000001 0.000001 -0.000000 13.880763 17.364918 6.448461 7.743898 3.476565 -0.937086 7.590200 3.698570 -0.860970 -0.606677 -0.746919 0.190761 -0.606681 -0.746921 0.190766 -0.000001 -0.000000 -0.000000 -0.606682 -0.746919 0.190762 -0.606608 -0.746921 0.190764 0.000002 0.000000 -0.000000 -0.000001 -0.000000 -0.000000 0.625797 -2.762208 -10.175407 29.562237 -17.533791 -68.267235 0.000008 -44.870740 0.000028 2.179129 -1.292399 15.822412 5.455207 -0.808537 -0.729221 12.648707 4.578148 14.108554 0.000002 -0.000000 -0.000003 -2.096166 -1.206095 -25.826851 0.645292 2.674802 -27.122123 0.000000 -0.000001 0.000004 -0.486363 3.025077 -30.571435 1.405911 3.808496 -40.511505 0.000000 -0.000000 0.000001 0.577663 4.922966 -34.399985 1.930268 4.346460 -47.875566 -0.000000 -0.000001 -0.000000 -0.682647 6.201146 -29.347011 1.274284 3.649150 -38.487836 0.000000 -0.000002 0.000001 0.000001 0.000001 0.000000 0.000001 0.000001 0.000000 0.000001 0.000000 0.000001 0.000001 -0.000002 -0.000000 0.000001 -0.000003 0.000000 0.000001 -0.000002 -0.000000 0.000001 -0.000003 -0.000000 -0.888189 11.255318 18.540731 -18.364396 18.828369 40.940492 -0.000004 52.325014 0.000020 15.210039 -3.663883 8.083335 18.520896 -7.190319 -1.277233 2.729742 -7.508608 -9.058015 -0.000000 -0.000001 -0.000002 -0.628618 -0.569672 52.358229 1.528813 -3.451708 47.767888 0.000000 0.000000 -0.000002 -0.129363 -4.356801 50.926522 2.510579 -4.133917 62.527732 -0.000000 -0.000000 -0.000000 0.454220 -4.860241 51.720173 2.698799 -4.226206 65.109038 0.000003 0.000001 -0.000000 0.481140 -5.795481 54.962297 0.849831 -2.683991 35.132529 -0.000001 -0.000002 0.000003 -0.000002 0.000001 -0.000002 0.000002 0.000001 0.000001 -0.000002 0.000001 -0.000003 0.000003 0.000002 -0.000001 0.000003 0.000002 -0.000001 0.000003 0.000002 -0.000001 0.000003 0.000002 -0.000001 0.000002 0.000001 -0.000000 0.000002 0.000001 -0.000000 0.000002 0.000001 -0.000000 0.000002 0.000001 -0.000000 0.000002 0.000001 -0.000000 0.000002 0.000001 -0.000000 0.000002 0.000001 -0.000000 0.000000 0.000000 -0.000000 0.000000 -0.000000 0.000001 
1.228848 89.356438 -116.418266 -4.892190 -5.620473 -6.931072 0.000000 0.000000 0.000000 -41.831234 -7.160748 10.588572 40.469059 8.219037 -0.635596 -8.858622 8.878429 -2.020436 -0.000001 0.000000 0.000000 0.000000 0.000000 0.000000 -3.258584 -4.178533 3.564364 33.533142 4.775111 -3.944958 -24.918128 -2.789160 3.934626 -0.000000 0.000001 0.000000 -0.000002 0.000000 -0.000000 14.610313 14.397460 4.939603 7.576008 3.506590 -0.411611 7.391677 3.751343 -0.404794 -0.557875 -0.712379 0.184215 -0.557874 -0.712384 0.184217 0.000000 0.000000 -0.000001 -0.557800 -0.712375 0.184214 -0.557865 -0.712383 0.184215 0.000001 -0.000001 0.000000 0.000000 0.000000 -0.000001 0.599748 -4.348836 -10.495486 26.564902 -15.799281 -68.304836 0.000007 -42.801824 0.000019 3.177962 0.095368 13.764316 4.533866 -0.323777 -0.514145 13.531910 3.165513 14.632222 -0.000003 0.000001 -0.000001 -1.832627 -0.409195 -27.375234 0.725496 2.825732 -28.793410 0.000001 -0.000001 0.000001 -0.172765 3.701739 -32.603689 1.482296 3.895916 -41.648342 -0.000000 0.000001 0.000003 1.006612 5.588686 -38.522711 2.106155 4.498810 -50.156179 -0.000000 -0.000001 0.000000 0.030171 6.172546 -29.839225 1.423571 3.829013 -40.776622 -0.000001 -0.000001 -0.000003 0.000001 0.000001 0.000000 0.000001 0.000001 0.000000 0.000001 0.000000 0.000000 0.000001 -0.000001 0.000000 0.000001 -0.000002 0.000000 0.000001 -0.000001 0.000000 0.000001 -0.000003 0.000001 -0.991259 11.186149 19.068010 -19.214015 16.007824 43.893832 -0.000002 49.655608 0.000011 14.865172 -2.859278 4.995766 18.520900 -7.190332 -1.277214 2.841740 -8.944331 -9.186229 -0.000002 0.000000 0.000001 -1.353946 -0.167984 52.622858 1.549942 -3.470759 48.118003 -0.000001 0.000001 0.000000 -0.678980 -3.915826 50.999960 2.562251 -4.160299 63.241971 -0.000002 -0.000001 -0.000001 0.147684 -4.526827 49.757197 2.573402 -4.165891 63.395685 0.000001 0.000003 -0.000003 0.083574 -5.724035 51.657725 0.724447 -2.496539 32.359155 0.000001 -0.000000 -0.000000 -0.000003 0.000002 -0.000000 -0.000001 0.000000 -0.000002 -0.000003 0.000001 -0.000003 0.000000 -0.000001 -0.000001 0.000001 -0.000001 -0.000000 0.000000 -0.000001 -0.000001 0.000001 -0.000001 -0.000000 0.000000 -0.000001 0.000000 0.000000 -0.000001 0.000000 0.000000 -0.000001 0.000000 0.000000 -0.000001 0.000000 0.000000 -0.000001 0.000000 0.000000 -0.000001 0.000000 0.000000 -0.000001 0.000000 0.000000 0.000000 -0.000000 0.000000 0.000000 0.000000 
0.963476 90.437256 -119.257507 -5.205857 -3.768533 -5.055965 0.000000 0.000000 0.000000 -36.634553 -4.525517 10.751187 42.428872 8.879216 -3.184942 -7.415692 6.174649 -2.326404 -0.000001 -0.000001 -0.000000 -0.000000 0.000000 -0.000000 -4.900867 -3.654348 2.243929 33.181571 2.587867 -3.012929 -22.771466 -2.761331 3.672844 -0.000000 0.000000 0.000000 0.000001 -0.000000 -0.000001 14.680406 11.641175 3.243079 7.458823 3.415391 -0.031616 7.259105 3.676417 -0.058489 -0.482403 -0.645064 0.192913 -0.482395 -0.645064 0.192914 0.000001 -0.000000 -0.000000 -0.482397 -0.645062 0.192913 -0.482394 -0.645078 0.192917 0.000003 -0.000000 -0.000000 0.000001 -0.000000 -0.000000 0.562994 -5.914867 -10.951334 24.441858 -13.757598 -67.164774 -0.000011 -42.042533 -0.000005 4.979373 1.243696 11.491085 3.617038 0.126551 -0.302886 14.236644 2.782322 15.130469 -0.000006 0.000001 -0.000003 -1.669468 0.605435 -31.380143 0.820379 2.991695 -30.663291 -0.000000 -0.000002 0.000000 0.067615 4.169200 -34.237884 1.561164 3.982625 -42.796384 -0.000000 -0.000002 0.000003 1.484369 6.181074 -41.966475 2.272976 4.632499 -52.251552 0.000000 -0.000001 -0.000000 0.552394 6.007990 -30.994190 1.579925 4.002749 -43.066009 0.000001 -0.000003 -0.000002 0.000000 0.000000 0.000000 0.000000 0.000000 0.000000 0.000001 -0.000000 0.000000 0.000001 0.000000 0.000000 0.000001 -0.000001 0.000000 0.000001 0.000000 0.000000 0.000001 -0.000001 0.000000 -1.045026 10.366372 19.436289 -18.423281 12.267742 47.768465 -0.000038 46.626802 0.000067 14.285902 -2.145595 1.402437 18.520920 -7.190329 -1.277215 3.103743 -9.321292 -9.270162 0.000000 0.000000 0.000001 -2.503887 -0.036696 54.243494 1.650494 -3.558188 49.757945 -0.000001 0.000001 0.000001 -1.281034 -3.407174 50.772703 2.579669 -4.169016 63.481943 -0.000002 -0.000002 0.000001 -0.327419 -3.968634 47.176697 2.445437 -4.099481 61.620075 -0.000001 -0.000003 0.000003 -0.298460 -5.418042 49.488617 0.642569 -2.362455 30.427297 0.000001 0.000002 -0.000001 0.000001 0.000002 -0.000001 0.000001 0.000001 -0.000003 0.000001 0.000002 -0.000000 0.000002 -0.000001 0.000000 0.000003 0.000000 0.000001 0.000002 -0.000001 0.000000 0.000003 -0.000000 0.000001 -0.000002 0.000001 -0.000001 -0.000002 0.000001 -0.000001 -0.000002 0.000001 -0.000001 -0.000002 0.000001 -0.000001 -0.000002 0.000001 -0.000001 -0.000002 0.000001 -0.000001 -0.000002 0.000001 -0.000001 0.000000 -0.000000 -0.000000 0.000000 0.000000 0.000000 
